<svg width="144" height="29" viewBox="0 0 144 29" fill="none" xmlns="http://www.w3.org/2000/svg">
<g clip-path="url(#clip0_6231_197517)">
<path fill-rule="evenodd" clip-rule="evenodd" d="M39.0518 10.565C37.6082 6.49643 34.2422 5.06143 30.1197 5.06143C27.9568 5.06143 25.9289 5.54 24.2104 6.975C22.5271 8.37643 21.6679 10.2907 21.6679 12.4779C21.6679 17.6057 25.7904 18.8364 29.9819 19.6914C31.4226 19.9971 34.1037 20.375 34.1037 22.3243C34.1037 24.2714 32.0098 24.8536 30.4291 24.8536C27.9906 24.8536 26.2053 23.9979 25.5176 21.5364L20.4303 22.6986C21.4977 27.28 25.5176 29.1957 29.9474 29.1957C32.3192 29.1957 34.894 28.7514 36.782 27.28C38.606 25.8771 39.7043 23.6907 39.7043 21.4C39.7043 19.0771 38.5342 17.1286 36.6118 15.8636C34.9622 14.7693 32.3859 14.29 30.4643 13.8807C29.1226 13.6393 27.061 13.23 27.061 11.5236C27.061 9.71 28.8484 9.33286 30.325 9.33286C32.4197 9.33286 33.6917 10.12 34.3794 12.1029L39.0518 10.565ZM57.2583 28.8529C56.9827 27.9993 56.9138 27.1429 56.9138 26.2543V18.1529C56.9138 16.0686 57.086 14.1536 55.3008 12.7186C53.8888 11.5564 51.5544 11.145 49.7705 11.145C46.0938 11.145 41.9719 12.3771 41.4573 16.58L46.2309 17.0257C46.2309 15.3164 47.64 14.495 49.2523 14.495C50.0096 14.495 50.8681 14.735 51.3153 15.3164C51.8315 15.965 51.7611 16.8529 51.7611 17.6057V18.015C49.6313 18.2214 46.8489 18.3571 44.8584 19.11C42.557 19.9643 40.9411 21.71 40.9411 24.2714C40.9411 27.5543 43.3444 29.1957 46.4369 29.1957C49.0491 29.1957 50.558 28.2029 52.0037 26.1521C51.9686 27.0414 52.0368 27.9629 52.2435 28.8529H57.2583ZM51.7611 21.2293C51.7611 22.4636 51.797 23.4857 51.0756 24.58C50.4905 25.47 49.5631 26.0157 48.5323 26.0157C47.1253 26.0157 46.3005 25.0921 46.3005 23.7257C46.3005 21.195 49.8366 20.7521 51.7611 20.545V21.2293ZM64.8179 19.0771C64.8179 17.2314 65.1589 14.5986 67.5988 14.5986C70.3826 14.5986 70.3826 18.2214 70.3826 20.17C70.3826 22.0493 70.3826 25.6729 67.5306 25.6729C66.6025 25.6729 65.8803 25.23 65.4008 24.4764C64.8509 23.6243 64.8179 22.5279 64.8179 21.5721V19.0771ZM59.6975 28.8529H62.4447C62.7548 27.93 62.9616 26.9371 63.5782 26.1864C64.8509 28.2714 66.0533 29.1957 68.5607 29.1957C73.8153 29.1957 75.6365 24.7157 75.6365 20.17C75.6365 16.0686 74.1254 11.145 69.1443 11.145C67.1853 11.145 65.7446 11.9657 64.8839 13.6757H64.7483V5.40286H59.6975V28.8529ZM92.9852 28.8529C92.7088 27.9993 92.6435 27.1429 92.6435 26.2543V18.1529C92.6435 16.0686 92.8144 14.1536 91.0248 12.7186C89.6192 11.5564 87.282 11.145 85.496 11.145C81.8214 11.145 77.6974 12.3771 77.1834 16.58L81.9577 17.0257C81.9577 15.3164 83.3654 14.495 84.9806 14.495C85.7372 14.495 86.5943 14.735 87.0422 15.3164C87.5569 15.965 87.4909 16.8529 87.4909 17.6057V18.015C85.3596 18.2214 82.5772 18.3571 80.5831 19.11C78.2817 19.9643 76.6651 21.71 76.6651 24.2714C76.6651 27.5543 79.0713 29.1957 82.1631 29.1957C84.7738 29.1957 86.2856 28.2029 87.7306 26.1521C87.6954 27.0414 87.7622 27.9629 87.9704 28.8529H92.9852ZM87.4909 21.2293C87.4909 22.4636 87.5239 23.4857 86.8024 24.58C86.2174 25.47 85.2892 26.0157 84.2606 26.0157C82.8507 26.0157 82.0267 25.0921 82.0267 23.7257C82.0267 21.195 85.5635 20.7521 87.4909 20.545V21.2293ZM110.333 28.8529V5.40286H105.284V13.3336C104.183 11.7264 102.881 11.145 100.92 11.145C95.8357 11.145 94.5307 16.2393 94.5307 20.375C94.5307 24.4086 95.9039 29.1957 100.817 29.1957C103.05 29.1957 104.494 27.9993 105.457 26.1521H105.525V28.8529H110.333ZM105.284 21.6064C105.284 22.4636 105.249 23.3843 104.837 24.17C104.424 24.9543 103.566 25.5714 102.639 25.5714C100.13 25.5714 99.8549 22.3921 99.8549 20.5114C99.8549 18.4257 99.9597 14.6657 102.843 14.6657C105.146 14.6657 105.284 17.5371 105.284 19.2136V21.6064ZM128.886 21.0236C128.92 18.6657 128.541 16.205 127.098 14.2229C125.653 12.24 123.147 11.145 120.708 11.145C115.278 11.145 112.224 15.2814 112.224 20.4093C112.224 25.5714 115.624 29.1957 120.844 29.1957C126.754 29.1957 128.78 24.0671 128.78 23.2114L124.106 22.8707C124.106 24.4764 122.564 25.605 121.018 25.605C118.82 25.605 117.65 23.9307 117.65 21.8786L117.685 21.0236H128.886ZM117.65 18.0507C117.824 16.0686 118.681 14.4257 120.914 14.4257C123.113 14.4257 123.732 16.1693 123.834 18.0507H117.65ZM131.118 28.8529H136.166V5.40286H131.118V28.8529ZM138.675 28.8529H143.723V5.40286H138.675V28.8529Z" fill="black"/>
<path fill-rule="evenodd" clip-rule="evenodd" d="M9.50441 0.755936C14.6657 0.755936 18.8543 4.92022 18.8543 10.0581C18.8543 15.1966 14.6657 19.3609 9.50441 19.3609C4.34099 19.3609 0.155273 15.1966 0.155273 10.0581C0.155273 4.92022 4.34099 0.755936 9.50441 0.755936ZM10.0184 5.40308H5.83554V14.7059L10.1809 14.7058C10.945 14.7037 11.7815 14.6725 12.416 14.2038C13.0714 13.7302 13.5631 13.0088 13.5631 12.1959C13.5631 10.9902 12.7713 10.1088 11.6134 9.87737V9.85165C12.594 9.60736 13.3032 8.90165 13.3032 7.84594C13.3032 6.96308 12.907 6.28594 12.1583 5.80951C11.518 5.40308 10.7556 5.40308 10.0184 5.40308ZM9.62393 10.7457C9.97783 10.7457 10.4136 10.7457 10.7265 10.9229C11.0409 11.0979 11.2599 11.4629 11.2599 11.8172C11.2599 12.1964 11.0833 12.5757 10.7682 12.7793C10.4279 13.0086 9.92399 12.9836 9.52846 12.9836H8.01526V10.7457H9.62393ZM9.33701 7.05594C9.70598 7.05594 10.2795 7.01594 10.5904 7.19308C10.8926 7.36951 11.0555 7.69451 11.0555 8.03522C11.0555 8.34808 10.9177 8.68522 10.6593 8.87451C10.3334 9.11879 9.88329 9.09094 9.50212 9.09094H8.01475V7.05594H9.33701Z" fill="#006DFF"/>
</g>
<defs>
<clipPath id="clip0_6231_197517">
<rect width="144" height="29" fill="white"/>
</clipPath>
</defs>
</svg>
